<svg xmlns="http://www.w3.org/2000/svg" viewBox="0 0 210 210" width="210" height="210">
	<style>
		tspan { white-space:pre }
		.shp0 { opacity: 0.965;fill: #ffffff } 
		.shp1 { opacity: 0.902;fill: #ffffff } 
		.shp2 { opacity: 0.827;fill: #fb1b00 } 
		.shp3 { opacity: 0.894;fill: #00adf7 } 
		.shp4 { opacity: 0.894;fill: #05b300 } 
	</style>
	<g id="Layer 0">
		<path id="Path 0" class="shp0" d="M29.1,44.35c-1.87,0.63 -4.68,2.61 -6.25,4.4c-1.57,1.79 -3.3,4.94 -3.85,7c-0.55,2.06 -1,11.06 -1,20c0,8.94 -0.46,17.15 -1.01,18.25c-0.55,1.1 -2.57,2.67 -4.5,3.5c-3.44,1.48 -3.5,1.6 -3.5,7.5c0,5.64 0.16,6.04 2.66,6.75c1.46,0.41 3.5,1.88 4.53,3.25c1.65,2.21 1.87,4.42 1.85,19c-0.01,10.39 0.44,17.92 1.22,20.33c0.68,2.11 2.58,5.08 4.23,6.62c1.65,1.53 4.57,3.3 6.5,3.93c1.93,0.63 6.31,1.14 9.75,1.13l6.25,-0.02v-12c-6.59,0.03 -9.4,-0.61 -10.5,-1.4c-1.86,-1.33 -2.02,-2.76 -2.29,-19.77c-0.16,-10.08 -0.5,-19.34 -0.75,-20.58c-0.25,-1.24 -1.7,-3.62 -3.21,-5.3l-2.75,-3.05l6,-6.02c0.97,-29.74 1.51,-39.27 1.83,-40.37c0.32,-1.1 1.61,-2.33 2.87,-2.74c1.26,-0.4 3.76,-0.74 5.54,-0.75l3.25,-0.01v-11c-10.46,0.16 -15.03,0.72 -16.9,1.35z" />
		<path id="Path 0" class="shp1" d="M63,104.5v63.5h25v-127h-25M125,104.5v63.5h24v-127h-24M92,115v54h28v-108h-28" />
		<path id="Path 1" class="shp2" d="M65,48.5v5.5h21v-11h-21" />
		<path id="Path 2" class="shp3" d="M127,48.5v5.5h21v-11h-21" />
		<path id="Path 3" class="shp0" d="M164,48.5v5.5c5.04,0.02 7.53,0.36 8.79,0.76c1.26,0.4 2.56,1.64 2.87,2.74c0.32,1.1 0.86,10.63 1.21,21.18l0.63,19.18l6,6.02c-4.26,4.73 -5.71,7.12 -5.96,8.36c-0.25,1.24 -0.59,10.5 -0.75,20.58c-0.27,17 -0.43,18.43 -2.29,19.77c-1.1,0.79 -3.91,1.43 -6.25,1.42l-4.25,-0.02v12c9.69,0.03 14.07,-0.48 16,-1.12c1.93,-0.63 4.85,-2.4 6.5,-3.93c1.65,-1.53 3.56,-4.51 4.23,-6.62c0.78,-2.41 1.23,-9.94 1.22,-20.33c-0.02,-14.58 0.2,-16.79 1.85,-19c1.03,-1.37 3.07,-2.84 4.53,-3.25c2.5,-0.71 2.66,-1.11 2.66,-6.75c0,-5.9 -0.06,-6.02 -3.5,-7.5c-1.93,-0.83 -3.95,-2.4 -4.5,-3.5c-0.55,-1.1 -1,-9.31 -1.01,-18.25c0,-8.94 -0.45,-17.94 -1,-20c-0.55,-2.06 -2.28,-5.21 -3.85,-7c-1.57,-1.79 -4.61,-3.81 -6.75,-4.48c-2.14,-0.68 -6.7,-1.24 -10.14,-1.25l-6.25,-0.02" />
		<path id="Path 4" class="shp2" d="M65,106v50h21v-100h-21" />
		<path id="Path 5" class="shp3" d="M127,61.5v5.5h21v-11h-21" />
		<path id="Path 6" class="shp4" d="M94,67.5v4.5l24.5,-0.5l0.5,-8.5h-25" />
		<path id="Path 7" class="shp3" d="M127,111v42h21v-84h-21" />
		<path id="Path 8" class="shp4" d="M94.03,115.97l-0.03,42.03l24.5,-0.5v-83l-24.44,-0.56" />
		<path id="Path 9" class="shp3" d="M127,160.5v5.5h21v-11h-21" />
		<path id="Path 10" class="shp2" d="M65,162.5v3.5h21v-7h-21" />
		<path id="Path 11" class="shp4" d="M94.03,162.97l-0.03,3.03h25l-0.5,-5.5l-24.44,-0.56" />
	</g>
</svg>